<svg width="46" height="46" viewBox="0 0 46 46" fill="none" xmlns="http://www.w3.org/2000/svg">
<circle cx="23" cy="23" r="23" fill="#FF8D41"/>
<path d="M17.484 28.436C19.276 26.9427 20.704 25.7013 21.768 24.712C22.832 23.704 23.7187 22.6587 24.428 21.576C25.1373 20.4933 25.492 19.4293 25.492 18.384C25.492 17.432 25.268 16.6853 24.82 16.144C24.372 15.6027 23.6813 15.332 22.748 15.332C21.8147 15.332 21.096 15.6493 20.592 16.284C20.088 16.9 19.8267 17.7493 19.808 18.832H16C16.0747 16.592 16.7373 14.8933 17.988 13.736C19.2573 12.5787 20.8627 12 22.804 12C24.932 12 26.5653 12.5693 27.704 13.708C28.8427 14.828 29.412 16.312 29.412 18.16C29.412 19.616 29.02 21.0067 28.236 22.332C27.452 23.6573 26.556 24.8147 25.548 25.804C24.54 26.7747 23.224 27.9507 21.6 29.332H29.86V32.58H16.028V29.668L17.484 28.436Z" fill="#F7F7F7"/>
</svg>
