<svg width="46" height="46" viewBox="0 0 46 46" fill="none" xmlns="http://www.w3.org/2000/svg">
<circle cx="23" cy="23" r="23" fill="#FF8D41"/>
<path d="M16.28 18.852C16.3733 16.9853 17.0267 15.548 18.24 14.54C19.472 13.5133 21.0867 13 23.084 13C24.4467 13 25.6133 13.2427 26.584 13.728C27.5547 14.1947 28.2827 14.8387 28.768 15.66C29.272 16.4627 29.524 17.3773 29.524 18.404C29.524 19.58 29.216 20.5787 28.6 21.4C28.0027 22.2027 27.284 22.744 26.444 23.024V23.136C27.5267 23.472 28.3667 24.0693 28.964 24.928C29.58 25.7867 29.888 26.888 29.888 28.232C29.888 29.352 29.6267 30.3507 29.104 31.228C28.6 32.1053 27.844 32.796 26.836 33.3C25.8467 33.7853 24.652 34.028 23.252 34.028C21.1427 34.028 19.4253 33.496 18.1 32.432C16.7747 31.368 16.0747 29.8 16 27.728H19.808C19.8453 28.6427 20.1533 29.38 20.732 29.94C21.3293 30.4813 22.1413 30.752 23.168 30.752C24.12 30.752 24.848 30.4907 25.352 29.968C25.8747 29.4267 26.136 28.736 26.136 27.896C26.136 26.776 25.7813 25.9733 25.072 25.488C24.3627 25.0027 23.2613 24.76 21.768 24.76H20.956V21.54H21.768C24.4187 21.54 25.744 20.6533 25.744 18.88C25.744 18.0773 25.5013 17.452 25.016 17.004C24.5493 16.556 23.868 16.332 22.972 16.332C22.0947 16.332 21.4133 16.5747 20.928 17.06C20.4613 17.5267 20.1907 18.124 20.116 18.852H16.28Z" fill="#F7F7F7"/>
</svg>
