<svg width="102" height="25" viewBox="0 0 102 25" fill="none" xmlns="http://www.w3.org/2000/svg">
<path d="M12.1898 7.2042C12.1898 8.09478 11.9742 8.92971 11.5432 9.70897C11.1281 10.4882 10.4655 11.1164 9.55545 11.5935C8.66137 12.0706 7.52781 12.3092 6.15476 12.3092H3.35279V18.7023H0V2.05153H6.15476C7.44798 2.05153 8.54961 2.27417 9.45965 2.71947C10.3697 3.16476 11.0482 3.77704 11.4953 4.5563C11.9583 5.33556 12.1898 6.21819 12.1898 7.2042ZM6.01107 9.61355C6.93708 9.61355 7.6236 9.40681 8.07064 8.99332C8.51768 8.56393 8.7412 7.96756 8.7412 7.2042C8.7412 5.58206 7.83116 4.77099 6.01107 4.77099H3.35279V9.61355H6.01107Z" fill="#FF8D41"/>
<path d="M16.2706 3.91221C15.6798 3.91221 15.1849 3.72933 14.7858 3.36355C14.4026 2.98187 14.211 2.51272 14.211 1.95611C14.211 1.39949 14.4026 0.938295 14.7858 0.572519C15.1849 0.19084 15.6798 0 16.2706 0C16.8613 0 17.3482 0.19084 17.7314 0.572519C18.1306 0.938295 18.3301 1.39949 18.3301 1.95611C18.3301 2.51272 18.1306 2.98187 17.7314 3.36355C17.3482 3.72933 16.8613 3.91221 16.2706 3.91221ZM17.923 5.48664V18.7023H14.5702V5.48664H17.923Z" fill="#FF8D41"/>
<path d="M20.3734 12.0945C20.3734 10.7268 20.6528 9.53403 21.2116 8.51622C21.7704 7.48251 22.5448 6.68734 23.5346 6.13073C24.5245 5.55821 25.6581 5.27195 26.9353 5.27195C28.5798 5.27195 29.9369 5.68543 31.0066 6.5124C32.0922 7.32347 32.8187 8.46851 33.1859 9.94752H29.5697C29.3781 9.375 29.0508 8.92971 28.5878 8.61164C28.1407 8.27767 27.5819 8.11069 26.9114 8.11069C25.9534 8.11069 25.1951 8.46056 24.6363 9.16031C24.0775 9.84415 23.7981 10.8222 23.7981 12.0945C23.7981 13.3508 24.0775 14.3289 24.6363 15.0286C25.1951 15.7125 25.9534 16.0544 26.9114 16.0544C28.2685 16.0544 29.1545 15.4501 29.5697 14.2414H33.1859C32.8187 15.6727 32.0922 16.8098 31.0066 17.6527C29.9209 18.4955 28.5638 18.917 26.9353 18.917C25.6581 18.917 24.5245 18.6387 23.5346 18.0821C22.5448 17.5095 21.7704 16.7144 21.2116 15.6966C20.6528 14.6629 20.3734 13.4622 20.3734 12.0945Z" fill="#FF8D41"/>
<path d="M34.7799 12.0468C34.7799 10.7109 35.0434 9.52608 35.5702 8.49237C36.1131 7.45865 36.8395 6.66349 37.7496 6.10687C38.6756 5.55025 39.7054 5.27195 40.8389 5.27195C41.8288 5.27195 42.6909 5.47074 43.4254 5.86832C44.1757 6.2659 44.7744 6.76686 45.2215 7.37118V5.48664H48.5982V18.7023H45.2215V16.77C44.7904 17.3903 44.1917 17.9071 43.4254 18.3206C42.675 18.7182 41.8048 18.917 40.815 18.917C39.6974 18.917 38.6756 18.6307 37.7496 18.0582C36.8395 17.4857 36.1131 16.6826 35.5702 15.6489C35.0434 14.5992 34.7799 13.3985 34.7799 12.0468ZM45.2215 12.0945C45.2215 11.2834 45.0618 10.5916 44.7425 10.0191C44.4232 9.43066 43.9921 8.98537 43.4493 8.68321C42.9065 8.36514 42.3237 8.20611 41.7011 8.20611C41.0784 8.20611 40.5036 8.35719 39.9768 8.65935C39.4499 8.96151 39.0188 9.40681 38.6836 9.99523C38.3642 10.5677 38.2046 11.2516 38.2046 12.0468C38.2046 12.8419 38.3642 13.5417 38.6836 14.146C39.0188 14.7344 39.4499 15.1877 39.9768 15.5057C40.5196 15.8238 41.0944 15.9828 41.7011 15.9828C42.3237 15.9828 42.9065 15.8317 43.4493 15.5296C43.9921 15.2115 44.4232 14.7662 44.7425 14.1937C45.0618 13.6053 45.2215 12.9055 45.2215 12.0945Z" fill="#FF8D41"/>
<path d="M55.2256 7.39504C55.6567 6.79071 56.2474 6.28976 56.9978 5.89218C57.7641 5.47869 58.6343 5.27195 59.6082 5.27195C60.7417 5.27195 61.7635 5.55025 62.6736 6.10687C63.5996 6.66349 64.326 7.45865 64.8529 8.49237C65.3957 9.51018 65.6671 10.695 65.6671 12.0468C65.6671 13.3985 65.3957 14.5992 64.8529 15.6489C64.326 16.6826 63.5996 17.4857 62.6736 18.0582C61.7635 18.6307 60.7417 18.917 59.6082 18.917C58.6343 18.917 57.7721 18.7182 57.0217 18.3206C56.2873 17.923 55.6886 17.4221 55.2256 16.8177V25H51.8728V5.48664H55.2256V7.39504ZM62.2425 12.0468C62.2425 11.2516 62.0749 10.5677 61.7396 9.99523C61.4203 9.40681 60.9892 8.96151 60.4464 8.65935C59.9195 8.35719 59.3447 8.20611 58.7221 8.20611C58.1154 8.20611 57.5406 8.36514 56.9978 8.68321C56.4709 8.98537 56.0398 9.43066 55.7046 10.0191C55.3853 10.6075 55.2256 11.2993 55.2256 12.0945C55.2256 12.8896 55.3853 13.5814 55.7046 14.1698C56.0398 14.7583 56.4709 15.2115 56.9978 15.5296C57.5406 15.8317 58.1154 15.9828 58.7221 15.9828C59.3447 15.9828 59.9195 15.8238 60.4464 15.5057C60.9892 15.1877 61.4203 14.7344 61.7396 14.146C62.0749 13.5576 62.2425 12.8578 62.2425 12.0468Z" fill="#FF8D41"/>
<path d="M73.9949 18.917C72.7176 18.917 71.5681 18.6387 70.5463 18.0821C69.5245 17.5095 68.7182 16.7064 68.1275 15.6727C67.5527 14.639 67.2653 13.4462 67.2653 12.0945C67.2653 10.7427 67.5607 9.54994 68.1514 8.51622C68.7581 7.48251 69.5803 6.68734 70.6181 6.13073C71.6559 5.55821 72.8134 5.27195 74.0907 5.27195C75.3679 5.27195 76.5254 5.55821 77.5632 6.13073C78.601 6.68734 79.4152 7.48251 80.0059 8.51622C80.6126 9.54994 80.916 10.7427 80.916 12.0945C80.916 13.4462 80.6046 14.639 79.982 15.6727C79.3753 16.7064 78.5451 17.5095 77.4913 18.0821C76.4536 18.6387 75.2881 18.917 73.9949 18.917ZM73.9949 16.0067C74.6015 16.0067 75.1683 15.8636 75.6952 15.5773C76.238 15.2751 76.6691 14.8298 76.9884 14.2414C77.3077 13.653 77.4674 12.9373 77.4674 12.0945C77.4674 10.8381 77.1321 9.87595 76.4615 9.20802C75.807 8.52417 75.0007 8.18225 74.0428 8.18225C73.0848 8.18225 72.2785 8.52417 71.624 9.20802C70.9853 9.87595 70.666 10.8381 70.666 12.0945C70.666 13.3508 70.9773 14.3209 71.6 15.0048C72.2386 15.6727 73.0369 16.0067 73.9949 16.0067Z" fill="#FF8D41"/>
<path d="M89.2667 18.917C87.9894 18.917 86.8399 18.6387 85.8181 18.0821C84.7963 17.5095 83.9901 16.7064 83.3993 15.6727C82.8246 14.639 82.5372 13.4462 82.5372 12.0945C82.5372 10.7427 82.8325 9.54994 83.4233 8.51622C84.03 7.48251 84.8522 6.68734 85.89 6.13073C86.9277 5.55821 88.0852 5.27195 89.3625 5.27195C90.6397 5.27195 91.7973 5.55821 92.835 6.13073C93.8728 6.68734 94.687 7.48251 95.2778 8.51622C95.8845 9.54994 96.1878 10.7427 96.1878 12.0945C96.1878 13.4462 95.8765 14.639 95.2538 15.6727C94.6471 16.7064 93.8169 17.5095 92.7632 18.0821C91.7254 18.6387 90.5599 18.917 89.2667 18.917ZM89.2667 16.0067C89.8734 16.0067 90.4402 15.8636 90.967 15.5773C91.5099 15.2751 91.9409 14.8298 92.2603 14.2414C92.5796 13.653 92.7392 12.9373 92.7392 12.0945C92.7392 10.8381 92.404 9.87595 91.7334 9.20802C91.0788 8.52417 90.2725 8.18225 89.3146 8.18225C88.3567 8.18225 87.5504 8.52417 86.8958 9.20802C86.2572 9.87595 85.9379 10.8381 85.9379 12.0945C85.9379 13.3508 86.2492 14.3209 86.8718 15.0048C87.5105 15.6727 88.3088 16.0067 89.2667 16.0067Z" fill="#FF8D41"/>
<path d="M102 1.04962V18.7023H98.6472V1.04962H102Z" fill="#FF8D41"/>
</svg>
