<svg width="192" height="194" viewBox="0 0 192 194" fill="none" xmlns="http://www.w3.org/2000/svg">
<path d="M138.365 160.692H53.635M138.365 160.692C145.856 160.692 153.039 163.675 158.336 168.983C163.633 174.292 166.608 181.492 166.608 189H25.3917C25.3917 181.492 28.3673 174.292 33.664 168.983C38.9606 163.675 46.1444 160.692 53.635 160.692M138.365 160.692V128.846C138.365 122.986 133.63 118.231 127.774 118.231H119.574M53.635 160.692V128.846C53.635 122.986 58.3799 118.231 64.2263 118.231H72.4356M119.574 118.231H72.4356M119.574 118.231C114.285 109.078 111.125 98.847 110.329 88.3001M72.4356 118.231C77.7214 109.077 80.8783 98.8463 81.6712 88.3001M110.329 88.3001C119.821 86.1136 128.67 81.7535 136.2 75.5616M110.329 88.3001C100.899 90.4706 91.101 90.4706 81.6712 88.3001M81.6712 88.3001C72.1822 86.1122 63.3274 81.7522 55.8003 75.5616M32.4525 23.7397C23.2075 25.0922 14.0567 26.7277 5 28.6464C7.09484 40.998 13.2183 52.3043 22.4112 60.7941C31.604 69.2839 43.3469 74.4776 55.8003 75.5616M32.4525 23.7397V26.2308C32.4525 46.1216 41.5469 63.88 55.8003 75.5616M32.4525 23.7397V9.44431C53.2208 6.50974 74.4409 5 96 5C117.559 5 138.789 6.50974 159.547 9.43487V23.7397M159.547 23.7397V26.2308C159.547 46.1216 150.453 63.88 136.2 75.5616M159.547 23.7397C168.749 25.0795 177.904 26.7159 187 28.6464C184.906 40.9965 178.784 52.3017 169.593 60.7914C160.402 69.281 148.651 74.4756 136.2 75.5616" stroke="#FF8D41" stroke-width="10" stroke-linecap="round" stroke-linejoin="round"/>
</svg>
