<svg width="45" height="49" viewBox="0 0 45 49" fill="none" xmlns="http://www.w3.org/2000/svg">
<path d="M32.0438 40.0769H12.9562M32.0438 40.0769C33.7312 40.0769 35.3495 40.8063 36.5427 42.1046C37.7359 43.403 38.4063 45.1639 38.4063 47H6.59373C6.59373 45.1639 7.26406 43.403 8.45727 42.1046C9.65047 40.8063 11.2688 40.0769 12.9562 40.0769M32.0438 40.0769V32.2885C32.0438 30.8554 30.977 29.6923 29.6578 29.6923H27.8106M12.9562 40.0769V32.2885C12.9562 30.8554 14.0251 29.6923 15.3422 29.6923H17.1915M27.8106 29.6923H17.1915M27.8106 29.6923C26.6191 27.4539 25.9072 24.9517 25.7279 22.3723M17.1915 29.6923C18.3823 27.4537 19.0935 24.9515 19.2721 22.3723M25.7279 22.3723C27.8663 21.8376 29.8597 20.7712 31.556 19.2569M25.7279 22.3723C23.6036 22.9031 21.3964 22.9031 19.2721 22.3723M19.2721 22.3723C17.1345 21.8372 15.1397 20.7709 13.444 19.2569M8.18436 6.58308C6.1017 6.91385 4.04024 7.31385 2 7.78308C2.47191 10.8039 3.85138 13.569 5.92229 15.6453C7.99321 17.7216 10.6386 18.9918 13.444 19.2569M8.18436 6.58308V7.19231C8.18436 12.0569 10.2331 16.4 13.444 19.2569M8.18436 6.58308V3.08692C12.8629 2.36923 17.6433 2 22.5 2C27.3567 2 32.1392 2.36923 36.8156 3.08462V6.58308M36.8156 6.58308V7.19231C36.8156 12.0569 34.7669 16.4 31.556 19.2569M36.8156 6.58308C38.8884 6.91074 40.9509 7.31094 43 7.78308C42.5282 10.8035 41.149 13.5684 39.0785 15.6446C37.008 17.7209 34.361 18.9913 31.556 19.2569" stroke="#FF8D41" stroke-width="4" stroke-linecap="round" stroke-linejoin="round"/>
</svg>
