<svg width="22" height="16" viewBox="0 0 22 16" fill="none" xmlns="http://www.w3.org/2000/svg">
<path d="M1 7C0.447715 7 0 7.44772 0 8C0 8.55228 0.447715 9 1 9V7ZM21.3335 8.70711C21.724 8.31658 21.724 7.68342 21.3335 7.29289L14.9695 0.928932C14.579 0.538408 13.9458 0.538408 13.5553 0.928932C13.1648 1.31946 13.1648 1.95262 13.5553 2.34315L19.2122 8L13.5553 13.6569C13.1648 14.0474 13.1648 14.6805 13.5553 15.0711C13.9458 15.4616 14.579 15.4616 14.9695 15.0711L21.3335 8.70711ZM1 9H20.6264V7H1V9Z" fill="#F7F7F7"/>
</svg>
